<?xml version="1.0" standalone="no"?>
<!DOCTYPE svg PUBLIC "-//W3C//DTD SVG 20010904//EN"
 "http://www.w3.org/TR/2001/REC-SVG-20010904/DTD/svg10.dtd">
<svg version="1.0" xmlns="http://www.w3.org/2000/svg"
 width="124.000000pt" height="70.000000pt" viewBox="0 0 124.000000 70.000000"
 preserveAspectRatio="xMidYMid meet">

<g transform="translate(0.000000,70.000000) scale(0.100000,-0.100000)"
fill="#000000" stroke="none">
<path d="M569 530 c-14 -30 -40 -90 -59 -132 -19 -43 -37 -78 -40 -78 -3 0
-29 56 -59 125 -30 69 -58 125 -62 125 -4 0 19 -60 52 -132 57 -127 60 -135
49 -172 -6 -21 -15 -35 -20 -30 -6 8 -84 178 -137 303 -8 18 -16 31 -19 28 -3
-2 30 -82 72 -177 74 -168 76 -174 64 -212 -6 -22 -13 -38 -15 -36 -2 2 -45
96 -95 208 -50 113 -96 210 -101 215 -13 12 -5 -7 101 -245 45 -102 85 -189
90 -194 5 -5 16 8 26 30 l17 39 15 -38 c8 -20 18 -37 22 -37 4 0 15 17 23 37
l15 38 17 -39 c22 -52 29 -40 9 15 l-16 44 53 122 c30 68 56 123 60 123 8 0
109 -233 109 -253 0 -10 -7 -32 -16 -48 -8 -17 -13 -33 -10 -36 3 -4 13 11 23
33 l16 39 16 -37 c9 -21 19 -38 22 -38 3 0 13 17 23 38 l18 37 15 -38 c8 -20
18 -37 22 -37 8 0 204 441 198 446 -2 3 -46 -90 -98 -206 -52 -115 -97 -210
-100 -210 -4 0 -12 14 -19 30 -12 28 -7 42 68 210 44 99 77 180 73 180 -4 0
-41 -77 -83 -172 l-76 -172 -17 35 -17 35 62 138 c33 76 59 140 57 143 -3 2
-31 -55 -63 -126 -32 -72 -61 -127 -65 -123 -4 4 -32 63 -62 132 l-55 124 -18
-37 c-10 -20 -20 -37 -23 -37 -3 0 -13 17 -22 38 l-15 37 -25 -55z m51 -41 c0
-9 -14 -47 -31 -85 -17 -38 -42 -94 -56 -124 l-25 -55 -15 37 c-16 40 -20 26
77 242 22 49 23 49 36 25 7 -13 13 -31 14 -40z m108 -60 c56 -128 58 -141 38
-177 -12 -22 -16 -16 -70 103 -54 119 -56 128 -44 161 6 19 14 34 18 34 3 0
29 -54 58 -121z m-238 -189 c10 -24 10 -36 0 -60 -7 -16 -16 -30 -20 -30 -17
0 -29 60 -19 90 6 17 14 30 19 30 4 0 13 -13 20 -30z m320 -1 c11 -25 10 -36
-2 -62 l-15 -32 -16 31 c-13 26 -14 37 -4 63 14 39 21 39 37 0z"/>
</g>
</svg>
